# xmcd CD database file
#
# Track frame offsets:
#	150
#	49330
#	80445
#	121870
#	144968
#
# Disc length: 2296 seconds
#
# Revision: 0
# Processed by: cddbd v1.5.1PL0 Copyright (c) Steve Scherf et al.
# Submitted via: CDex 1.51
#
DISCID=3a08f605
DTITLE=ジョージ大塚 - Last Summer <Page 3>
DYEAR=1969
DGENRE=Jazz
TTITLE0=Last Summer
TTITLE1=Things We Did Last Summer
TTITLE2=Over The Rainbow
TTITLE3=Sea View
TTITLE4=Breaze,Brook And Birds
EXTD=YEAR: 1969
EXTT0=
EXTT1=
EXTT2=
EXTT3=
EXTT4=
PLAYORDER=
